<svg width="400" height="400" viewBox="0 0 400 400" fill="none" xmlns="http://www.w3.org/2000/svg">
<rect width="400" height="400" fill="white"/>
<rect width="400" height="400" fill="white"/>
<path d="M111.624 147.848C112.206 148.042 112.788 148.236 113.176 148.236C114.145 148.236 114.339 148.042 116.278 146.491C116.472 146.297 116.86 146.103 117.054 146.103C118.411 146.103 118.993 147.266 118.993 149.981C119.187 152.308 119.381 152.89 121.514 166.076C121.708 167.628 121.902 168.985 121.902 169.567C121.902 170.924 121.126 171.894 120.351 171.894C119.187 171.894 118.799 171.312 117.83 168.209C114.145 156.768 100.959 148.43 86.8027 148.43C74.9737 148.43 66.4412 155.993 66.4412 166.464C66.4412 171.118 67.9926 175.191 71.0953 178.681C75.5554 183.529 76.525 184.111 96.1108 190.51C115.697 196.909 125.199 207.381 125.199 221.925C125.199 241.705 109.297 255.861 86.9966 255.861C78.0764 255.861 66.0534 252.952 61.9811 249.849C60.4297 248.492 60.2358 248.298 59.0723 242.48C59.0723 242.093 58.2966 239.378 57.1331 235.305C55.7757 231.039 55 226.579 55 225.028C55 223.67 55.7757 222.701 56.7453 222.701C57.5209 222.701 57.9088 223.282 58.2966 224.252C60.8176 231.621 63.7264 236.469 67.9926 240.735C73.6162 246.359 82.7304 249.849 91.4568 249.849C105.807 249.849 117.442 239.959 117.442 227.743C117.442 221.731 114.533 216.107 109.491 212.035C106.582 209.902 103.868 208.545 89.7115 204.084C76.1372 199.43 70.3196 196.328 64.8899 190.704C60.0419 185.662 57.5209 179.457 57.5209 171.894C57.5209 155.023 71.677 143 92.2324 143C99.6014 143 101.347 143.582 111.624 147.848Z" fill="#154881"/>
<path d="M159.327 190.897C139.547 184.304 138.578 183.916 134.311 179.068C131.209 175.577 129.657 171.505 129.657 166.851C129.657 156.185 138.19 148.816 150.019 148.816C164.175 148.816 177.168 157.155 181.046 168.596C182.016 171.699 182.597 172.281 183.567 172.281C184.343 172.281 185.118 171.311 185.118 169.954C185.118 169.372 184.924 168.208 184.73 166.463C182.597 153.277 182.403 152.695 182.209 150.368C182.209 147.653 181.628 146.489 180.27 146.489C179.882 146.489 179.689 146.683 179.495 146.877C177.555 148.429 177.361 148.623 176.392 148.623C176.004 148.623 175.616 148.429 174.841 148.235C164.757 143.775 162.818 143.387 155.643 143.387C140.905 143.387 129.464 149.398 124.228 159.094L125.391 167.045C125.585 168.208 125.585 168.984 125.585 169.372C125.585 172.475 123.646 174.802 121.125 175.383C121.707 181.395 124.228 186.631 128.494 190.897C133.924 196.52 139.741 199.623 153.316 204.277C167.278 208.931 170.186 210.095 173.095 212.228C178.137 216.106 181.046 221.924 181.046 227.935C181.046 240.152 169.411 250.042 155.061 250.042C146.334 250.042 137.22 246.552 131.597 240.928C129.851 239.183 128.3 237.243 126.943 235.11C125.779 237.825 124.422 240.54 122.87 242.867C124.034 248.297 124.228 248.685 125.779 249.848C129.851 252.951 141.874 255.86 150.795 255.86C172.901 255.86 188.997 241.704 188.997 221.924C188.609 207.768 178.913 197.49 159.327 190.897Z" fill="#154881"/>
<path d="M342.194 146.879C341.224 146.879 340.061 147.073 338.315 147.267C336.376 147.655 334.437 147.849 331.14 147.849C326.486 147.849 318.729 147.461 315.821 147.267L312.33 147.073C310.779 147.073 310.003 147.655 310.003 148.624C310.003 149.788 310.585 150.369 312.33 150.757C327.456 152.89 328.813 156.381 328.425 193.419V231.428C328.425 233.949 328.231 234.53 327.456 234.336C327.068 234.336 326.486 233.755 325.323 232.397L252.409 149.4C250.858 147.655 249.888 147.073 248.143 147.073C247.561 147.073 246.592 147.073 245.428 147.267H244.071C243.683 147.267 240.192 147.267 237.865 147.073C238.835 147.655 239.804 148.43 240.774 149.012C247.755 154.248 252.021 163.168 252.021 172.864C252.021 174.415 251.827 175.967 251.633 177.324C251.633 178.488 251.633 179.651 251.633 180.815V227.743L253.573 230.652C255.318 233.173 256.675 235.306 258.033 237.245C258.033 236.276 258.033 235.306 258.033 234.336V180.427C258.033 177.712 258.421 176.936 259.584 176.936C260.36 176.936 260.554 177.13 261.523 178.1L328.425 254.892C330.946 257.801 330.946 257.801 332.11 257.801C334.049 257.801 334.631 256.637 334.631 253.146V251.595C334.825 246.941 334.825 239.766 334.825 229.682V178.1L335.019 173.058C334.825 153.86 335.6 151.921 342.969 149.982C344.133 149.788 344.521 149.4 344.521 148.624C344.521 147.655 343.551 146.879 342.194 146.879Z" fill="#154881"/>
<path d="M274.323 252.373C265.984 252.567 260.36 247.913 250.471 232.787L228.364 200.596C241.162 194.003 248.144 184.695 248.144 172.866C248.144 164.334 244.653 156.771 238.448 152.117C232.242 147.463 224.292 145.523 211.881 145.523C208.196 145.523 204.124 145.717 200.052 145.911C191.325 146.493 191.325 146.493 187.253 146.493C186.671 146.493 186.283 146.493 185.702 146.493C186.09 147.463 186.283 148.626 186.283 150.177C186.477 151.729 186.477 152.505 187.641 158.904L188.998 167.436C189.192 168.6 189.192 169.375 189.192 169.763C189.192 171.509 188.61 173.06 187.447 174.223C187.447 174.611 187.447 175.193 187.447 175.581V204.669C190.937 209.711 192.683 215.528 192.683 222.121C192.683 229.684 190.55 236.471 186.865 242.095C185.896 249.076 183.375 250.821 176.975 252.761C175.424 253.148 175.036 253.342 175.036 254.312C175.036 255.475 175.618 255.863 177.169 255.863C177.751 255.863 179.69 255.669 181.242 255.475C183.956 255.088 188.029 254.894 191.907 254.894C199.47 254.894 207.808 255.088 209.748 255.475C211.881 255.669 213.626 255.863 214.596 255.863C215.953 255.863 217.117 255.282 217.117 254.312C217.117 253.342 216.147 252.761 214.208 252.567C202.96 251.403 199.276 247.331 199.664 236.277V232.011V207.577C199.858 204.863 200.246 204.475 204.318 204.669H213.044C216.535 204.669 217.504 205.25 219.25 207.965C219.831 208.935 220.219 209.517 220.219 209.711L239.805 239.768C247.756 251.985 254.737 256.639 264.433 256.639C270.25 256.639 275.68 255.088 275.68 253.536C275.68 252.955 275.098 252.373 274.323 252.373ZM214.014 198.657H205.094C199.858 198.463 199.47 198.075 199.47 193.034V160.843C199.47 155.413 199.47 154.832 200.44 153.474C201.603 151.923 203.93 150.953 207.615 150.953C214.983 150.953 222.934 153.474 227.394 157.546C233.018 162.2 236.315 169.957 236.315 177.326C236.315 190.513 227.976 198.657 214.014 198.657Z" fill="#154881"/>
</svg>
